<mxfile host="app.diagrams.net" modified="2023-09-22T12:17:50.456Z" agent="Mozilla/5.0 (Windows NT 10.0; Win64; x64; rv:109.0) Gecko/20100101 Firefox/117.0" etag="jhf6l-RgZUSUJYuGuYyA" version="21.7.5" type="device">
  <diagram name="Pagina-1" id="opsYDkwGyhG0ZiY4xurV">
    <mxGraphModel dx="440" dy="1900" grid="1" gridSize="10" guides="1" tooltips="1" connect="1" arrows="1" fold="1" page="1" pageScale="1" pageWidth="827" pageHeight="1169" math="0" shadow="0">
      <root>
        <mxCell id="0" />
        <mxCell id="1" parent="0" />
        <mxCell id="wEoxP2lr9VhXcSe8FNW--11" value="" style="edgeStyle=orthogonalEdgeStyle;rounded=0;orthogonalLoop=1;jettySize=auto;html=1;" parent="1" source="wEoxP2lr9VhXcSe8FNW--1" target="wEoxP2lr9VhXcSe8FNW--10" edge="1">
          <mxGeometry relative="1" as="geometry" />
        </mxCell>
        <mxCell id="wEoxP2lr9VhXcSe8FNW--21" value="" style="edgeStyle=orthogonalEdgeStyle;rounded=0;orthogonalLoop=1;jettySize=auto;html=1;" parent="1" source="wEoxP2lr9VhXcSe8FNW--1" target="wEoxP2lr9VhXcSe8FNW--10" edge="1">
          <mxGeometry relative="1" as="geometry" />
        </mxCell>
        <mxCell id="wEoxP2lr9VhXcSe8FNW--23" value="" style="edgeStyle=orthogonalEdgeStyle;rounded=0;orthogonalLoop=1;jettySize=auto;html=1;" parent="1" source="wEoxP2lr9VhXcSe8FNW--1" target="wEoxP2lr9VhXcSe8FNW--22" edge="1">
          <mxGeometry relative="1" as="geometry" />
        </mxCell>
        <mxCell id="wEoxP2lr9VhXcSe8FNW--1" value="1. Welcome" style="rounded=1;whiteSpace=wrap;html=1;" parent="1" vertex="1">
          <mxGeometry x="1034" y="-630" width="120" height="60" as="geometry" />
        </mxCell>
        <mxCell id="wEoxP2lr9VhXcSe8FNW--20" value="" style="edgeStyle=orthogonalEdgeStyle;rounded=0;orthogonalLoop=1;jettySize=auto;html=1;" parent="1" source="wEoxP2lr9VhXcSe8FNW--10" target="wEoxP2lr9VhXcSe8FNW--19" edge="1">
          <mxGeometry relative="1" as="geometry" />
        </mxCell>
        <mxCell id="wEoxP2lr9VhXcSe8FNW--10" value="&lt;div&gt;Express preferences&lt;/div&gt;" style="ellipse;whiteSpace=wrap;html=1;rounded=1;" parent="1" vertex="1">
          <mxGeometry x="884" y="-490" width="146" height="100" as="geometry" />
        </mxCell>
        <mxCell id="wEoxP2lr9VhXcSe8FNW--31" style="edgeStyle=orthogonalEdgeStyle;rounded=0;orthogonalLoop=1;jettySize=auto;html=1;" parent="1" source="wEoxP2lr9VhXcSe8FNW--19" target="wEoxP2lr9VhXcSe8FNW--29" edge="1">
          <mxGeometry relative="1" as="geometry" />
        </mxCell>
        <mxCell id="wEoxP2lr9VhXcSe8FNW--33" value="" style="edgeStyle=orthogonalEdgeStyle;rounded=0;orthogonalLoop=1;jettySize=auto;html=1;" parent="1" source="wEoxP2lr9VhXcSe8FNW--19" target="wEoxP2lr9VhXcSe8FNW--32" edge="1">
          <mxGeometry relative="1" as="geometry" />
        </mxCell>
        <mxCell id="wEoxP2lr9VhXcSe8FNW--19" value="Food expressed?" style="rhombus;whiteSpace=wrap;html=1;rounded=1;" parent="1" vertex="1">
          <mxGeometry x="704" y="-335" width="94" height="90" as="geometry" />
        </mxCell>
        <mxCell id="wEoxP2lr9VhXcSe8FNW--30" value="" style="edgeStyle=orthogonalEdgeStyle;rounded=0;orthogonalLoop=1;jettySize=auto;html=1;" parent="1" source="wEoxP2lr9VhXcSe8FNW--22" target="wEoxP2lr9VhXcSe8FNW--29" edge="1">
          <mxGeometry relative="1" as="geometry" />
        </mxCell>
        <mxCell id="wEoxP2lr9VhXcSe8FNW--22" value="Expresses no preferences" style="ellipse;whiteSpace=wrap;html=1;rounded=1;" parent="1" vertex="1">
          <mxGeometry x="1184" y="-490" width="80" height="80" as="geometry" />
        </mxCell>
        <mxCell id="wEoxP2lr9VhXcSe8FNW--26" value="no" style="text;html=1;align=center;verticalAlign=middle;resizable=0;points=[];autosize=1;strokeColor=none;fillColor=none;" parent="1" vertex="1">
          <mxGeometry x="964" y="-320" width="40" height="30" as="geometry" />
        </mxCell>
        <mxCell id="wEoxP2lr9VhXcSe8FNW--37" style="edgeStyle=orthogonalEdgeStyle;rounded=0;orthogonalLoop=1;jettySize=auto;html=1;entryX=0.5;entryY=0;entryDx=0;entryDy=0;" parent="1" source="wEoxP2lr9VhXcSe8FNW--29" target="wEoxP2lr9VhXcSe8FNW--48" edge="1">
          <mxGeometry relative="1" as="geometry" />
        </mxCell>
        <mxCell id="wEoxP2lr9VhXcSe8FNW--29" value="2. Ask food" style="whiteSpace=wrap;html=1;rounded=1;" parent="1" vertex="1">
          <mxGeometry x="1164" y="-320" width="120" height="60" as="geometry" />
        </mxCell>
        <mxCell id="wEoxP2lr9VhXcSe8FNW--32" value="Area expressed?" style="rhombus;whiteSpace=wrap;html=1;rounded=1;" parent="1" vertex="1">
          <mxGeometry x="697" y="-140" width="107" height="103" as="geometry" />
        </mxCell>
        <mxCell id="wEoxP2lr9VhXcSe8FNW--46" value="no" style="text;html=1;align=center;verticalAlign=middle;resizable=0;points=[];autosize=1;strokeColor=none;fillColor=none;" parent="1" vertex="1">
          <mxGeometry x="974" y="-240" width="40" height="30" as="geometry" />
        </mxCell>
        <mxCell id="wEoxP2lr9VhXcSe8FNW--63" style="edgeStyle=orthogonalEdgeStyle;rounded=0;orthogonalLoop=1;jettySize=auto;html=1;exitX=0;exitY=0.5;exitDx=0;exitDy=0;entryX=1;entryY=0.5;entryDx=0;entryDy=0;" parent="1" source="wEoxP2lr9VhXcSe8FNW--48" target="wEoxP2lr9VhXcSe8FNW--53" edge="1">
          <mxGeometry relative="1" as="geometry" />
        </mxCell>
        <mxCell id="wEoxP2lr9VhXcSe8FNW--48" value="Reply food" style="ellipse;whiteSpace=wrap;html=1;" parent="1" vertex="1">
          <mxGeometry x="1174" y="-240" width="100" height="60" as="geometry" />
        </mxCell>
        <mxCell id="wEoxP2lr9VhXcSe8FNW--65" style="edgeStyle=orthogonalEdgeStyle;rounded=0;orthogonalLoop=1;jettySize=auto;html=1;exitX=0;exitY=0.5;exitDx=0;exitDy=0;entryX=1;entryY=0.5;entryDx=0;entryDy=0;" parent="1" source="wEoxP2lr9VhXcSe8FNW--53" target="wEoxP2lr9VhXcSe8FNW--57" edge="1">
          <mxGeometry relative="1" as="geometry" />
        </mxCell>
        <mxCell id="wEoxP2lr9VhXcSe8FNW--71" style="edgeStyle=orthogonalEdgeStyle;rounded=0;orthogonalLoop=1;jettySize=auto;html=1;entryX=1;entryY=0.5;entryDx=0;entryDy=0;" parent="1" source="wEoxP2lr9VhXcSe8FNW--53" target="wEoxP2lr9VhXcSe8FNW--32" edge="1">
          <mxGeometry relative="1" as="geometry">
            <Array as="points">
              <mxPoint x="1064" y="-88" />
            </Array>
          </mxGeometry>
        </mxCell>
        <mxCell id="wEoxP2lr9VhXcSe8FNW--53" value="Spelled correctly?" style="rhombus;whiteSpace=wrap;html=1;" parent="1" vertex="1">
          <mxGeometry x="1004" y="-250" width="80" height="80" as="geometry" />
        </mxCell>
        <mxCell id="wEoxP2lr9VhXcSe8FNW--66" style="edgeStyle=orthogonalEdgeStyle;rounded=0;orthogonalLoop=1;jettySize=auto;html=1;exitX=0;exitY=1;exitDx=0;exitDy=0;entryX=0.5;entryY=0;entryDx=0;entryDy=0;" parent="1" source="wEoxP2lr9VhXcSe8FNW--57" target="wEoxP2lr9VhXcSe8FNW--59" edge="1">
          <mxGeometry relative="1" as="geometry" />
        </mxCell>
        <mxCell id="wEoxP2lr9VhXcSe8FNW--68" style="edgeStyle=orthogonalEdgeStyle;rounded=0;orthogonalLoop=1;jettySize=auto;html=1;exitX=1;exitY=1;exitDx=0;exitDy=0;entryX=0.5;entryY=0;entryDx=0;entryDy=0;" parent="1" source="wEoxP2lr9VhXcSe8FNW--57" target="wEoxP2lr9VhXcSe8FNW--60" edge="1">
          <mxGeometry relative="1" as="geometry" />
        </mxCell>
        <mxCell id="wEoxP2lr9VhXcSe8FNW--57" value="3. Suggest spelling" style="rounded=1;whiteSpace=wrap;html=1;" parent="1" vertex="1">
          <mxGeometry x="864" y="-240" width="120" height="60" as="geometry" />
        </mxCell>
        <mxCell id="wEoxP2lr9VhXcSe8FNW--67" style="edgeStyle=orthogonalEdgeStyle;rounded=0;orthogonalLoop=1;jettySize=auto;html=1;exitX=0;exitY=1;exitDx=0;exitDy=0;entryX=1;entryY=0;entryDx=0;entryDy=0;" parent="1" source="wEoxP2lr9VhXcSe8FNW--59" target="wEoxP2lr9VhXcSe8FNW--32" edge="1">
          <mxGeometry relative="1" as="geometry" />
        </mxCell>
        <mxCell id="wEoxP2lr9VhXcSe8FNW--59" value="Confirm" style="ellipse;whiteSpace=wrap;html=1;" parent="1" vertex="1">
          <mxGeometry x="834" y="-157" width="60" height="50" as="geometry" />
        </mxCell>
        <mxCell id="wEoxP2lr9VhXcSe8FNW--69" style="edgeStyle=orthogonalEdgeStyle;rounded=0;orthogonalLoop=1;jettySize=auto;html=1;entryX=0;entryY=0.75;entryDx=0;entryDy=0;" parent="1" source="wEoxP2lr9VhXcSe8FNW--60" target="wEoxP2lr9VhXcSe8FNW--29" edge="1">
          <mxGeometry relative="1" as="geometry">
            <Array as="points">
              <mxPoint x="1120" y="-132" />
              <mxPoint x="1120" y="-275" />
            </Array>
          </mxGeometry>
        </mxCell>
        <mxCell id="wEoxP2lr9VhXcSe8FNW--60" value="Deny" style="ellipse;whiteSpace=wrap;html=1;" parent="1" vertex="1">
          <mxGeometry x="944" y="-157" width="66" height="50" as="geometry" />
        </mxCell>
        <mxCell id="wEoxP2lr9VhXcSe8FNW--72" value="yes" style="text;html=1;align=center;verticalAlign=middle;resizable=0;points=[];autosize=1;strokeColor=none;fillColor=none;" parent="1" vertex="1">
          <mxGeometry x="1014" y="-122" width="40" height="30" as="geometry" />
        </mxCell>
        <mxCell id="wEoxP2lr9VhXcSe8FNW--75" style="edgeStyle=orthogonalEdgeStyle;rounded=0;orthogonalLoop=1;jettySize=auto;html=1;exitX=1;exitY=1;exitDx=0;exitDy=0;" parent="1" source="wEoxP2lr9VhXcSe8FNW--32" target="wEoxP2lr9VhXcSe8FNW--80" edge="1">
          <mxGeometry relative="1" as="geometry">
            <mxPoint x="834" y="-62" as="sourcePoint" />
          </mxGeometry>
        </mxCell>
        <mxCell id="wEoxP2lr9VhXcSe8FNW--76" value="" style="edgeStyle=orthogonalEdgeStyle;rounded=0;orthogonalLoop=1;jettySize=auto;html=1;exitX=0.5;exitY=1;exitDx=0;exitDy=0;" parent="1" source="wEoxP2lr9VhXcSe8FNW--32" edge="1">
          <mxGeometry relative="1" as="geometry">
            <mxPoint x="750" y="120" as="targetPoint" />
            <mxPoint x="794.0666666666671" y="-22.06666666666706" as="sourcePoint" />
            <Array as="points">
              <mxPoint x="750" y="80" />
              <mxPoint x="750" y="120" />
            </Array>
          </mxGeometry>
        </mxCell>
        <mxCell id="wEoxP2lr9VhXcSe8FNW--79" style="edgeStyle=orthogonalEdgeStyle;rounded=0;orthogonalLoop=1;jettySize=auto;html=1;entryX=0.5;entryY=0;entryDx=0;entryDy=0;" parent="1" source="wEoxP2lr9VhXcSe8FNW--80" target="wEoxP2lr9VhXcSe8FNW--83" edge="1">
          <mxGeometry relative="1" as="geometry" />
        </mxCell>
        <mxCell id="wEoxP2lr9VhXcSe8FNW--80" value="4. Ask area" style="whiteSpace=wrap;html=1;rounded=1;" parent="1" vertex="1">
          <mxGeometry x="1174" y="-92" width="120" height="60" as="geometry" />
        </mxCell>
        <mxCell id="wEoxP2lr9VhXcSe8FNW--81" value="no" style="text;html=1;align=center;verticalAlign=middle;resizable=0;points=[];autosize=1;strokeColor=none;fillColor=none;" parent="1" vertex="1">
          <mxGeometry x="1004" y="-12" width="40" height="30" as="geometry" />
        </mxCell>
        <mxCell id="wEoxP2lr9VhXcSe8FNW--82" style="edgeStyle=orthogonalEdgeStyle;rounded=0;orthogonalLoop=1;jettySize=auto;html=1;exitX=0;exitY=0.5;exitDx=0;exitDy=0;entryX=1;entryY=0.5;entryDx=0;entryDy=0;" parent="1" source="wEoxP2lr9VhXcSe8FNW--83" target="wEoxP2lr9VhXcSe8FNW--86" edge="1">
          <mxGeometry relative="1" as="geometry" />
        </mxCell>
        <mxCell id="wEoxP2lr9VhXcSe8FNW--83" value="Reply area" style="ellipse;whiteSpace=wrap;html=1;" parent="1" vertex="1">
          <mxGeometry x="1184" y="-12" width="100" height="60" as="geometry" />
        </mxCell>
        <mxCell id="wEoxP2lr9VhXcSe8FNW--84" style="edgeStyle=orthogonalEdgeStyle;rounded=0;orthogonalLoop=1;jettySize=auto;html=1;exitX=0;exitY=0.5;exitDx=0;exitDy=0;entryX=1;entryY=0.5;entryDx=0;entryDy=0;" parent="1" source="wEoxP2lr9VhXcSe8FNW--86" target="wEoxP2lr9VhXcSe8FNW--89" edge="1">
          <mxGeometry relative="1" as="geometry" />
        </mxCell>
        <mxCell id="wEoxP2lr9VhXcSe8FNW--85" style="edgeStyle=orthogonalEdgeStyle;rounded=0;orthogonalLoop=1;jettySize=auto;html=1;entryX=1;entryY=0.5;entryDx=0;entryDy=0;" parent="1" source="wEoxP2lr9VhXcSe8FNW--86" target="wEoxP2lr9VhXcSe8FNW--117" edge="1">
          <mxGeometry relative="1" as="geometry">
            <mxPoint x="834" y="161" as="targetPoint" />
            <Array as="points">
              <mxPoint x="1074" y="128" />
              <mxPoint x="934" y="128" />
              <mxPoint x="934" y="161" />
            </Array>
          </mxGeometry>
        </mxCell>
        <mxCell id="wEoxP2lr9VhXcSe8FNW--86" value="Spelled correctly?" style="rhombus;whiteSpace=wrap;html=1;" parent="1" vertex="1">
          <mxGeometry x="1034" y="-22" width="80" height="80" as="geometry" />
        </mxCell>
        <mxCell id="wEoxP2lr9VhXcSe8FNW--87" style="edgeStyle=orthogonalEdgeStyle;rounded=0;orthogonalLoop=1;jettySize=auto;html=1;exitX=0;exitY=1;exitDx=0;exitDy=0;entryX=0.5;entryY=0;entryDx=0;entryDy=0;" parent="1" source="wEoxP2lr9VhXcSe8FNW--89" target="wEoxP2lr9VhXcSe8FNW--91" edge="1">
          <mxGeometry relative="1" as="geometry" />
        </mxCell>
        <mxCell id="wEoxP2lr9VhXcSe8FNW--88" style="edgeStyle=orthogonalEdgeStyle;rounded=0;orthogonalLoop=1;jettySize=auto;html=1;exitX=1;exitY=1;exitDx=0;exitDy=0;entryX=0.5;entryY=0;entryDx=0;entryDy=0;" parent="1" source="wEoxP2lr9VhXcSe8FNW--89" target="wEoxP2lr9VhXcSe8FNW--93" edge="1">
          <mxGeometry relative="1" as="geometry" />
        </mxCell>
        <mxCell id="wEoxP2lr9VhXcSe8FNW--89" value="5. Suggest spelling" style="rounded=1;whiteSpace=wrap;html=1;" parent="1" vertex="1">
          <mxGeometry x="894" y="-12" width="120" height="60" as="geometry" />
        </mxCell>
        <mxCell id="wEoxP2lr9VhXcSe8FNW--90" style="edgeStyle=orthogonalEdgeStyle;rounded=0;orthogonalLoop=1;jettySize=auto;html=1;exitX=0;exitY=1;exitDx=0;exitDy=0;entryX=1;entryY=0;entryDx=0;entryDy=0;" parent="1" source="wEoxP2lr9VhXcSe8FNW--91" target="wEoxP2lr9VhXcSe8FNW--117" edge="1">
          <mxGeometry relative="1" as="geometry">
            <mxPoint x="814" y="141" as="targetPoint" />
          </mxGeometry>
        </mxCell>
        <mxCell id="wEoxP2lr9VhXcSe8FNW--91" value="Confirm" style="ellipse;whiteSpace=wrap;html=1;" parent="1" vertex="1">
          <mxGeometry x="864" y="71" width="60" height="50" as="geometry" />
        </mxCell>
        <mxCell id="wEoxP2lr9VhXcSe8FNW--92" style="edgeStyle=orthogonalEdgeStyle;rounded=0;orthogonalLoop=1;jettySize=auto;html=1;entryX=1;entryY=0.5;entryDx=0;entryDy=0;" parent="1" source="wEoxP2lr9VhXcSe8FNW--93" target="wEoxP2lr9VhXcSe8FNW--80" edge="1">
          <mxGeometry relative="1" as="geometry">
            <mxPoint x="1370" y="-60" as="targetPoint" />
            <Array as="points">
              <mxPoint x="1320" y="96" />
              <mxPoint x="1320" y="-62" />
            </Array>
          </mxGeometry>
        </mxCell>
        <mxCell id="wEoxP2lr9VhXcSe8FNW--93" value="Deny" style="ellipse;whiteSpace=wrap;html=1;" parent="1" vertex="1">
          <mxGeometry x="974" y="71" width="66" height="50" as="geometry" />
        </mxCell>
        <mxCell id="wEoxP2lr9VhXcSe8FNW--94" value="yes" style="text;html=1;align=center;verticalAlign=middle;resizable=0;points=[];autosize=1;strokeColor=none;fillColor=none;" parent="1" vertex="1">
          <mxGeometry x="1024" y="126" width="40" height="30" as="geometry" />
        </mxCell>
        <mxCell id="wEoxP2lr9VhXcSe8FNW--116" value="" style="edgeStyle=orthogonalEdgeStyle;rounded=0;orthogonalLoop=1;jettySize=auto;html=1;entryX=0.5;entryY=0;entryDx=0;entryDy=0;" parent="1" source="wEoxP2lr9VhXcSe8FNW--117" target="wEoxP2lr9VhXcSe8FNW--141" edge="1">
          <mxGeometry relative="1" as="geometry">
            <mxPoint x="784" y="344" as="targetPoint" />
          </mxGeometry>
        </mxCell>
        <mxCell id="wEoxP2lr9VhXcSe8FNW--135" style="edgeStyle=orthogonalEdgeStyle;rounded=0;orthogonalLoop=1;jettySize=auto;html=1;exitX=1;exitY=1;exitDx=0;exitDy=0;" parent="1" source="wEoxP2lr9VhXcSe8FNW--117" target="wEoxP2lr9VhXcSe8FNW--120" edge="1">
          <mxGeometry relative="1" as="geometry" />
        </mxCell>
        <mxCell id="wEoxP2lr9VhXcSe8FNW--117" value="Price expressed?" style="rhombus;whiteSpace=wrap;html=1;rounded=1;" parent="1" vertex="1">
          <mxGeometry x="700" y="121" width="90.5" height="89" as="geometry" />
        </mxCell>
        <mxCell id="wEoxP2lr9VhXcSe8FNW--119" style="edgeStyle=orthogonalEdgeStyle;rounded=0;orthogonalLoop=1;jettySize=auto;html=1;entryX=0.5;entryY=0;entryDx=0;entryDy=0;" parent="1" source="wEoxP2lr9VhXcSe8FNW--120" target="wEoxP2lr9VhXcSe8FNW--123" edge="1">
          <mxGeometry relative="1" as="geometry" />
        </mxCell>
        <mxCell id="wEoxP2lr9VhXcSe8FNW--120" value="6. Ask price" style="whiteSpace=wrap;html=1;rounded=1;" parent="1" vertex="1">
          <mxGeometry x="1164" y="131" width="120" height="60" as="geometry" />
        </mxCell>
        <mxCell id="wEoxP2lr9VhXcSe8FNW--121" value="no" style="text;html=1;align=center;verticalAlign=middle;resizable=0;points=[];autosize=1;strokeColor=none;fillColor=none;" parent="1" vertex="1">
          <mxGeometry x="994" y="211" width="40" height="30" as="geometry" />
        </mxCell>
        <mxCell id="wEoxP2lr9VhXcSe8FNW--122" style="edgeStyle=orthogonalEdgeStyle;rounded=0;orthogonalLoop=1;jettySize=auto;html=1;exitX=0;exitY=0.5;exitDx=0;exitDy=0;entryX=1;entryY=0.5;entryDx=0;entryDy=0;" parent="1" source="wEoxP2lr9VhXcSe8FNW--123" target="wEoxP2lr9VhXcSe8FNW--126" edge="1">
          <mxGeometry relative="1" as="geometry" />
        </mxCell>
        <mxCell id="wEoxP2lr9VhXcSe8FNW--123" value="Reply food" style="ellipse;whiteSpace=wrap;html=1;" parent="1" vertex="1">
          <mxGeometry x="1174" y="211" width="100" height="60" as="geometry" />
        </mxCell>
        <mxCell id="wEoxP2lr9VhXcSe8FNW--124" style="edgeStyle=orthogonalEdgeStyle;rounded=0;orthogonalLoop=1;jettySize=auto;html=1;exitX=0;exitY=0.5;exitDx=0;exitDy=0;entryX=1;entryY=0.5;entryDx=0;entryDy=0;" parent="1" source="wEoxP2lr9VhXcSe8FNW--126" target="wEoxP2lr9VhXcSe8FNW--129" edge="1">
          <mxGeometry relative="1" as="geometry" />
        </mxCell>
        <mxCell id="wEoxP2lr9VhXcSe8FNW--125" style="edgeStyle=orthogonalEdgeStyle;rounded=0;orthogonalLoop=1;jettySize=auto;html=1;entryX=1;entryY=0.5;entryDx=0;entryDy=0;" parent="1" source="wEoxP2lr9VhXcSe8FNW--126" target="wEoxP2lr9VhXcSe8FNW--141" edge="1">
          <mxGeometry relative="1" as="geometry">
            <mxPoint x="824" y="384" as="targetPoint" />
            <Array as="points">
              <mxPoint x="1064" y="351" />
              <mxPoint x="924" y="351" />
              <mxPoint x="924" y="384" />
              <mxPoint x="724" y="384" />
              <mxPoint x="724" y="390" />
            </Array>
          </mxGeometry>
        </mxCell>
        <mxCell id="wEoxP2lr9VhXcSe8FNW--126" value="Spelled correctly?" style="rhombus;whiteSpace=wrap;html=1;" parent="1" vertex="1">
          <mxGeometry x="1024" y="201" width="80" height="80" as="geometry" />
        </mxCell>
        <mxCell id="wEoxP2lr9VhXcSe8FNW--127" style="edgeStyle=orthogonalEdgeStyle;rounded=0;orthogonalLoop=1;jettySize=auto;html=1;exitX=0;exitY=1;exitDx=0;exitDy=0;entryX=0.5;entryY=0;entryDx=0;entryDy=0;" parent="1" source="wEoxP2lr9VhXcSe8FNW--129" target="wEoxP2lr9VhXcSe8FNW--131" edge="1">
          <mxGeometry relative="1" as="geometry" />
        </mxCell>
        <mxCell id="wEoxP2lr9VhXcSe8FNW--128" style="edgeStyle=orthogonalEdgeStyle;rounded=0;orthogonalLoop=1;jettySize=auto;html=1;exitX=1;exitY=1;exitDx=0;exitDy=0;entryX=0.5;entryY=0;entryDx=0;entryDy=0;" parent="1" source="wEoxP2lr9VhXcSe8FNW--129" target="wEoxP2lr9VhXcSe8FNW--133" edge="1">
          <mxGeometry relative="1" as="geometry" />
        </mxCell>
        <mxCell id="wEoxP2lr9VhXcSe8FNW--129" value="7. Suggest spelling" style="rounded=1;whiteSpace=wrap;html=1;" parent="1" vertex="1">
          <mxGeometry x="884" y="211" width="120" height="60" as="geometry" />
        </mxCell>
        <mxCell id="wEoxP2lr9VhXcSe8FNW--130" style="edgeStyle=orthogonalEdgeStyle;rounded=0;orthogonalLoop=1;jettySize=auto;html=1;exitX=0;exitY=1;exitDx=0;exitDy=0;entryX=1;entryY=0;entryDx=0;entryDy=0;" parent="1" source="wEoxP2lr9VhXcSe8FNW--131" target="wEoxP2lr9VhXcSe8FNW--141" edge="1">
          <mxGeometry relative="1" as="geometry">
            <mxPoint x="804" y="364" as="targetPoint" />
          </mxGeometry>
        </mxCell>
        <mxCell id="wEoxP2lr9VhXcSe8FNW--131" value="Confirm" style="ellipse;whiteSpace=wrap;html=1;" parent="1" vertex="1">
          <mxGeometry x="854" y="294" width="60" height="50" as="geometry" />
        </mxCell>
        <mxCell id="wEoxP2lr9VhXcSe8FNW--132" style="edgeStyle=orthogonalEdgeStyle;rounded=0;orthogonalLoop=1;jettySize=auto;html=1;entryX=0;entryY=0.75;entryDx=0;entryDy=0;" parent="1" source="wEoxP2lr9VhXcSe8FNW--133" target="wEoxP2lr9VhXcSe8FNW--120" edge="1">
          <mxGeometry relative="1" as="geometry" />
        </mxCell>
        <mxCell id="wEoxP2lr9VhXcSe8FNW--133" value="Deny" style="ellipse;whiteSpace=wrap;html=1;" parent="1" vertex="1">
          <mxGeometry x="964" y="294" width="66" height="50" as="geometry" />
        </mxCell>
        <mxCell id="wEoxP2lr9VhXcSe8FNW--134" value="yes" style="text;html=1;align=center;verticalAlign=middle;resizable=0;points=[];autosize=1;strokeColor=none;fillColor=none;" parent="1" vertex="1">
          <mxGeometry x="1014" y="349" width="40" height="30" as="geometry" />
        </mxCell>
        <mxCell id="wEoxP2lr9VhXcSe8FNW--136" value="no" style="text;html=1;align=center;verticalAlign=middle;resizable=0;points=[];autosize=1;strokeColor=none;fillColor=none;" parent="1" vertex="1">
          <mxGeometry x="994" y="158" width="40" height="30" as="geometry" />
        </mxCell>
        <mxCell id="wEoxP2lr9VhXcSe8FNW--137" value="no" style="text;html=1;align=center;verticalAlign=middle;resizable=0;points=[];autosize=1;strokeColor=none;fillColor=none;" parent="1" vertex="1">
          <mxGeometry x="1004" y="-62" width="40" height="30" as="geometry" />
        </mxCell>
        <mxCell id="wEoxP2lr9VhXcSe8FNW--138" value="yes" style="text;html=1;align=center;verticalAlign=middle;resizable=0;points=[];autosize=1;strokeColor=none;fillColor=none;" parent="1" vertex="1">
          <mxGeometry x="697" y="-212" width="40" height="30" as="geometry" />
        </mxCell>
        <mxCell id="wEoxP2lr9VhXcSe8FNW--139" value="yes" style="text;html=1;align=center;verticalAlign=middle;resizable=0;points=[];autosize=1;strokeColor=none;fillColor=none;" parent="1" vertex="1">
          <mxGeometry x="710" y="18" width="40" height="30" as="geometry" />
        </mxCell>
        <mxCell id="wEoxP2lr9VhXcSe8FNW--140" value="yes" style="text;html=1;align=center;verticalAlign=middle;resizable=0;points=[];autosize=1;strokeColor=none;fillColor=none;" parent="1" vertex="1">
          <mxGeometry x="724" y="241" width="40" height="30" as="geometry" />
        </mxCell>
        <mxCell id="wEoxP2lr9VhXcSe8FNW--144" style="edgeStyle=orthogonalEdgeStyle;rounded=0;orthogonalLoop=1;jettySize=auto;html=1;entryX=0.5;entryY=0;entryDx=0;entryDy=0;" parent="1" source="wEoxP2lr9VhXcSe8FNW--141" target="wEoxP2lr9VhXcSe8FNW--142" edge="1">
          <mxGeometry relative="1" as="geometry" />
        </mxCell>
        <mxCell id="wEoxP2lr9VhXcSe8FNW--145" style="edgeStyle=orthogonalEdgeStyle;rounded=0;orthogonalLoop=1;jettySize=auto;html=1;entryX=0.5;entryY=0;entryDx=0;entryDy=0;" parent="1" source="wEoxP2lr9VhXcSe8FNW--141" target="wEoxP2lr9VhXcSe8FNW--143" edge="1">
          <mxGeometry relative="1" as="geometry" />
        </mxCell>
        <mxCell id="wEoxP2lr9VhXcSe8FNW--149" style="edgeStyle=orthogonalEdgeStyle;rounded=0;orthogonalLoop=1;jettySize=auto;html=1;exitX=1;exitY=1;exitDx=0;exitDy=0;" parent="1" source="wEoxP2lr9VhXcSe8FNW--141" edge="1">
          <mxGeometry relative="1" as="geometry">
            <mxPoint x="764" y="460" as="targetPoint" />
          </mxGeometry>
        </mxCell>
        <mxCell id="wEoxP2lr9VhXcSe8FNW--151" style="edgeStyle=orthogonalEdgeStyle;rounded=0;orthogonalLoop=1;jettySize=auto;html=1;exitX=0;exitY=0;exitDx=0;exitDy=0;entryX=0.5;entryY=1;entryDx=0;entryDy=0;" parent="1" source="wEoxP2lr9VhXcSe8FNW--141" edge="1" target="wEoxP2lr9VhXcSe8FNW--152">
          <mxGeometry relative="1" as="geometry">
            <mxPoint x="464" y="310" as="targetPoint" />
          </mxGeometry>
        </mxCell>
        <mxCell id="wEoxP2lr9VhXcSe8FNW--141" value="8. Suggest restaurant" style="rounded=1;whiteSpace=wrap;html=1;" parent="1" vertex="1">
          <mxGeometry x="584" y="360" width="120" height="60" as="geometry" />
        </mxCell>
        <mxCell id="wEoxP2lr9VhXcSe8FNW--148" value="" style="edgeStyle=orthogonalEdgeStyle;rounded=0;orthogonalLoop=1;jettySize=auto;html=1;" parent="1" source="wEoxP2lr9VhXcSe8FNW--142" target="wEoxP2lr9VhXcSe8FNW--147" edge="1">
          <mxGeometry relative="1" as="geometry" />
        </mxCell>
        <mxCell id="wEoxP2lr9VhXcSe8FNW--142" value="&lt;div&gt;Thanks&lt;/div&gt;" style="ellipse;whiteSpace=wrap;html=1;" parent="1" vertex="1">
          <mxGeometry x="474" y="450" width="80" height="60" as="geometry" />
        </mxCell>
        <mxCell id="wEoxP2lr9VhXcSe8FNW--160" style="edgeStyle=orthogonalEdgeStyle;rounded=0;orthogonalLoop=1;jettySize=auto;html=1;entryX=0;entryY=0.5;entryDx=0;entryDy=0;" parent="1" source="wEoxP2lr9VhXcSe8FNW--143" target="wEoxP2lr9VhXcSe8FNW--159" edge="1">
          <mxGeometry relative="1" as="geometry" />
        </mxCell>
        <mxCell id="wEoxP2lr9VhXcSe8FNW--143" value="Request adress" style="ellipse;whiteSpace=wrap;html=1;" parent="1" vertex="1">
          <mxGeometry x="594" y="460" width="100" height="60" as="geometry" />
        </mxCell>
        <mxCell id="wEoxP2lr9VhXcSe8FNW--147" value="11. end program. thank user for participation" style="whiteSpace=wrap;html=1;" parent="1" vertex="1">
          <mxGeometry x="454" y="590" width="120" height="60" as="geometry" />
        </mxCell>
        <mxCell id="wEoxP2lr9VhXcSe8FNW--161" style="edgeStyle=orthogonalEdgeStyle;rounded=0;orthogonalLoop=1;jettySize=auto;html=1;entryX=0;entryY=0;entryDx=0;entryDy=0;" parent="1" source="wEoxP2lr9VhXcSe8FNW--150" target="wEoxP2lr9VhXcSe8FNW--159" edge="1">
          <mxGeometry relative="1" as="geometry" />
        </mxCell>
        <mxCell id="wEoxP2lr9VhXcSe8FNW--150" value="Request phone" style="ellipse;whiteSpace=wrap;html=1;" parent="1" vertex="1">
          <mxGeometry x="724" y="460" width="80" height="60" as="geometry" />
        </mxCell>
        <mxCell id="wEoxP2lr9VhXcSe8FNW--168" style="edgeStyle=orthogonalEdgeStyle;rounded=0;orthogonalLoop=1;jettySize=auto;html=1;entryX=0;entryY=0.5;entryDx=0;entryDy=0;" parent="1" source="wEoxP2lr9VhXcSe8FNW--152" target="wEoxP2lr9VhXcSe8FNW--167" edge="1">
          <mxGeometry relative="1" as="geometry" />
        </mxCell>
        <mxCell id="wEoxP2lr9VhXcSe8FNW--152" value="Other dialog act" style="ellipse;whiteSpace=wrap;html=1;" parent="1" vertex="1">
          <mxGeometry x="378" y="201" width="96" height="50" as="geometry" />
        </mxCell>
        <mxCell id="wEoxP2lr9VhXcSe8FNW--164" value="" style="edgeStyle=orthogonalEdgeStyle;rounded=0;orthogonalLoop=1;jettySize=auto;html=1;" parent="1" source="wEoxP2lr9VhXcSe8FNW--159" edge="1">
          <mxGeometry relative="1" as="geometry">
            <mxPoint x="904" y="610" as="targetPoint" />
          </mxGeometry>
        </mxCell>
        <mxCell id="wEoxP2lr9VhXcSe8FNW--166" style="edgeStyle=orthogonalEdgeStyle;rounded=0;orthogonalLoop=1;jettySize=auto;html=1;entryX=0;entryY=0.5;entryDx=0;entryDy=0;" parent="1" source="wEoxP2lr9VhXcSe8FNW--159" edge="1" target="wEoxP2lr9VhXcSe8FNW--169">
          <mxGeometry relative="1" as="geometry">
            <mxPoint x="1010" y="470" as="targetPoint" />
          </mxGeometry>
        </mxCell>
        <mxCell id="wEoxP2lr9VhXcSe8FNW--159" value="Information known?" style="rhombus;whiteSpace=wrap;html=1;" parent="1" vertex="1">
          <mxGeometry x="864" y="440" width="86" height="90" as="geometry" />
        </mxCell>
        <mxCell id="wEoxP2lr9VhXcSe8FNW--162" value="yes" style="text;html=1;align=center;verticalAlign=middle;resizable=0;points=[];autosize=1;strokeColor=none;fillColor=none;" parent="1" vertex="1">
          <mxGeometry x="954" y="460" width="40" height="30" as="geometry" />
        </mxCell>
        <mxCell id="wEoxP2lr9VhXcSe8FNW--165" value="no" style="text;html=1;align=center;verticalAlign=middle;resizable=0;points=[];autosize=1;strokeColor=none;fillColor=none;" parent="1" vertex="1">
          <mxGeometry x="904" y="548" width="40" height="30" as="geometry" />
        </mxCell>
        <mxCell id="wEoxP2lr9VhXcSe8FNW--172" value="" style="edgeStyle=orthogonalEdgeStyle;rounded=0;orthogonalLoop=1;jettySize=auto;html=1;entryX=0;entryY=0;entryDx=0;entryDy=0;" parent="1" source="wEoxP2lr9VhXcSe8FNW--167" target="wEoxP2lr9VhXcSe8FNW--171" edge="1">
          <mxGeometry relative="1" as="geometry">
            <Array as="points">
              <mxPoint x="1024" y="630" />
              <mxPoint x="1024" y="660" />
              <mxPoint x="1104" y="660" />
            </Array>
          </mxGeometry>
        </mxCell>
        <mxCell id="wEoxP2lr9VhXcSe8FNW--167" value="10. Apologies; ask if they what to know something else." style="rounded=1;whiteSpace=wrap;html=1;" parent="1" vertex="1">
          <mxGeometry x="844" y="600" width="120" height="60" as="geometry" />
        </mxCell>
        <mxCell id="wEoxP2lr9VhXcSe8FNW--170" style="edgeStyle=orthogonalEdgeStyle;rounded=0;orthogonalLoop=1;jettySize=auto;html=1;entryX=0.5;entryY=0;entryDx=0;entryDy=0;" parent="1" source="wEoxP2lr9VhXcSe8FNW--169" target="wEoxP2lr9VhXcSe8FNW--171" edge="1">
          <mxGeometry relative="1" as="geometry">
            <mxPoint x="1094" y="600" as="targetPoint" />
          </mxGeometry>
        </mxCell>
        <mxCell id="wEoxP2lr9VhXcSe8FNW--169" value="9. Give information&lt;br&gt;ask if they want to know something else." style="rounded=1;whiteSpace=wrap;html=1;" parent="1" vertex="1">
          <mxGeometry x="1034" y="455" width="120" height="60" as="geometry" />
        </mxCell>
        <mxCell id="wEoxP2lr9VhXcSe8FNW--173" style="edgeStyle=orthogonalEdgeStyle;rounded=0;orthogonalLoop=1;jettySize=auto;html=1;entryX=0.5;entryY=1;entryDx=0;entryDy=0;" parent="1" source="wEoxP2lr9VhXcSe8FNW--171" target="wEoxP2lr9VhXcSe8FNW--150" edge="1">
          <mxGeometry relative="1" as="geometry" />
        </mxCell>
        <mxCell id="wEoxP2lr9VhXcSe8FNW--174" style="edgeStyle=orthogonalEdgeStyle;rounded=0;orthogonalLoop=1;jettySize=auto;html=1;exitX=0;exitY=1;exitDx=0;exitDy=0;entryX=0.5;entryY=1;entryDx=0;entryDy=0;" parent="1" source="wEoxP2lr9VhXcSe8FNW--171" target="wEoxP2lr9VhXcSe8FNW--143" edge="1">
          <mxGeometry relative="1" as="geometry" />
        </mxCell>
        <mxCell id="wEoxP2lr9VhXcSe8FNW--177" style="edgeStyle=orthogonalEdgeStyle;rounded=0;orthogonalLoop=1;jettySize=auto;html=1;entryX=0.5;entryY=1;entryDx=0;entryDy=0;" parent="1" source="wEoxP2lr9VhXcSe8FNW--171" target="wEoxP2lr9VhXcSe8FNW--147" edge="1">
          <mxGeometry relative="1" as="geometry" />
        </mxCell>
        <mxCell id="wEoxP2lr9VhXcSe8FNW--171" value="More info asked?" style="rhombus;whiteSpace=wrap;html=1;rounded=1;" parent="1" vertex="1">
          <mxGeometry x="1084" y="650" width="80" height="80" as="geometry" />
        </mxCell>
        <mxCell id="wEoxP2lr9VhXcSe8FNW--175" value="yes" style="text;html=1;align=center;verticalAlign=middle;resizable=0;points=[];autosize=1;strokeColor=none;fillColor=none;" parent="1" vertex="1">
          <mxGeometry x="764" y="568" width="40" height="30" as="geometry" />
        </mxCell>
        <mxCell id="wEoxP2lr9VhXcSe8FNW--176" value="yes" style="text;html=1;align=center;verticalAlign=middle;resizable=0;points=[];autosize=1;strokeColor=none;fillColor=none;" parent="1" vertex="1">
          <mxGeometry x="594" y="558" width="40" height="30" as="geometry" />
        </mxCell>
        <mxCell id="wEoxP2lr9VhXcSe8FNW--178" value="no" style="text;html=1;align=center;verticalAlign=middle;resizable=0;points=[];autosize=1;strokeColor=none;fillColor=none;" parent="1" vertex="1">
          <mxGeometry x="534" y="690" width="40" height="30" as="geometry" />
        </mxCell>
      </root>
    </mxGraphModel>
  </diagram>
</mxfile>
